<?xml version="1.0" encoding="UTF-8" standalone="no"?>
<svg
   xmlns:dc="http://purl.org/dc/elements/1.1/"
   xmlns:cc="http://creativecommons.org/ns#"
   xmlns:rdf="http://www.w3.org/1999/02/22-rdf-syntax-ns#"
   xmlns:svg="http://www.w3.org/2000/svg"
   xmlns="http://www.w3.org/2000/svg"
   xmlns:sodipodi="http://sodipodi.sourceforge.net/DTD/sodipodi-0.dtd"
   xmlns:inkscape="http://www.inkscape.org/namespaces/inkscape"
   height="20.157482pt"
   viewBox="-61 0 15.354332 20.157482"
   width="15.354332pt"
   version="1.1"
   id="svg6"
   sodipodi:docname="start.svg"
   inkscape:version="0.92.4 (5da689c313, 2019-01-14)">
  <defs
     id="defs12" />
  <sodipodi:namedview
     pagecolor="#ffffff"
     bordercolor="#666666"
     borderopacity="1"
     objecttolerance="10"
     gridtolerance="10"
     guidetolerance="10"
     inkscape:pageopacity="0"
     inkscape:pageshadow="2"
     inkscape:window-width="1280"
     inkscape:window-height="977"
     id="namedview10"
     showgrid="false"
     inkscape:zoom="22.125"
     inkscape:cx="9.6820492"
     inkscape:cy="11.877374"
     inkscape:window-x="0"
     inkscape:window-y="0"
     inkscape:window-maximized="1"
     inkscape:current-layer="layer1" />
  <metadata
     id="metadata12">
    <rdf:RDF>
      <cc:Work
         rdf:about="">
        <dc:format>image/svg+xml</dc:format>
        <dc:type
           rdf:resource="http://purl.org/dc/dcmitype/StillImage" />
        <dc:title />
      </cc:Work>
    </rdf:RDF>
  </metadata>
  <g
     inkscape:label="Layer 1"
     inkscape:groupmode="layer"
     id="layer1"
     transform="translate(-55.861736,3.5430262)">
    <g
       id="start-here-kde"
       transform="matrix(0.03937008,0,0,0.03937008,-5.1382643,-3.5430262)">
      <defs
         id="defs10" />
      <sodipodi:namedview
         pagecolor="#ffffff"
         bordercolor="#666666"
         borderopacity="1"
         objecttolerance="10"
         gridtolerance="10"
         guidetolerance="10"
         inkscape:pageopacity="0"
         inkscape:pageshadow="2"
         inkscape:window-width="1280"
         inkscape:window-height="977"
         id="namedview8"
         showgrid="false"
         inkscape:zoom="0.34570313"
         inkscape:cx="341.33333"
         inkscape:cy="341.33333"
         inkscape:window-x="0"
         inkscape:window-y="0"
         inkscape:window-maximized="1"
         inkscape:current-layer="svg6" />
      <path
         d="m 240,105 c 0,-24.8125 -20.1875,-45 -45,-45 -24.8125,0 -45,20.1875 -45,45 0,18.42188 22.19922,53.40234 32.65625,68.52344 L 195,191.39453 207.34375,173.52734 C 217.80078,158.40234 240,123.42188 240,105 Z m -45.00391,32.19922 C 186.35937,122.65234 180.12109,109.58594 180,105 c 0,-8.269531 6.73047,-15 15,-15 8.26562,0 14.99219,6.722656 15,14.98828 -0.12891,4.58985 -6.36719,17.66016 -15.00391,32.21094 z m 0,0"
         id="path2"
         style="fill:#008080"
         inkscape:connector-curvature="0" />
      <path
         d="m 390,179.09375 -119.19922,7.01172 C 286.02344,161.24219 300,131.82422 300,105 300,47.101562 252.89844,0 195,0 137.10156,0 90,47.101562 90,105 c 0,26.75391 13.98828,56.19922 29.21094,81.10547 L 0,179.09375 v 91.8125 L 143.19141,262.48437 118.4375,512 h 153.125 L 246.80859,262.48437 390,270.90625 Z M 166.44141,332 h 57.11718 l 2.97657,30 h -63.07032 z m -5.95313,60 h 69.02344 l 2.97656,30 h -74.97266 z m -8.92578,90 2.97656,-30 h 80.92578 l 2.97266,30 z M 360,239.09375 213.48437,230.47266 220.58203,302 H 169.41797 L 176.51562,230.47266 30,239.09375 v -28.1875 l 148.27344,8.72266 -17.78125,-25.39454 C 150.47656,179.92578 120,136.39453 120,105 c 0,-41.355469 33.64453,-75 75,-75 41.35547,0 75,33.644531 75,75 0,31.51172 -30.48828,74.94531 -40.50781,89.21875 L 211.64844,219.63672 360,210.90625 Z m 0,0"
         id="path4"
         style="fill:#008080"
         inkscape:connector-curvature="0" />
    </g>
  </g>
</svg>
